<svg width="512" height="512" viewBox="0 0 512 512" fill="none" xmlns="http://www.w3.org/2000/svg">
<path d="M127.946 303.984L111.934 363.759L53.4104 364.997C35.9205 332.557 26 295.442 26 256C26 217.861 35.2755 181.894 51.7169 150.225H51.7294L103.832 159.778L126.656 211.567C121.879 225.494 119.275 240.444 119.275 256C119.277 272.884 122.335 289.06 127.946 303.984Z" fill="black"/>
<path d="M481.981 213.033C484.623 226.946 486 241.315 486 256C486 272.467 484.269 288.529 480.971 304.022C469.774 356.745 440.518 402.783 399.991 435.362L399.978 435.35L334.353 432.001L325.065 374.021C351.957 358.249 372.973 333.568 384.043 304.022H261.056V213.033H385.838H481.981Z" fill="black"/>
<path d="M399.977 435.35L399.989 435.362C360.574 467.044 310.504 486 256 486C168.41 486 92.2577 437.043 53.4102 364.998L127.945 303.985C147.369 355.823 197.375 392.724 256 392.724C281.198 392.724 304.805 385.912 325.063 374.021L399.977 435.35Z" fill="black"/>
<path d="M402.808 78.9503L328.298 139.951C307.333 126.846 282.551 119.276 256 119.276C196.048 119.276 145.107 157.87 126.656 211.567L51.7294 150.225H51.7168C89.9956 76.423 167.108 26 256 26C311.806 26 362.975 45.8788 402.808 78.9503Z" fill="black"/>
</svg>
