<svg width="225" height="28" viewBox="0 0 225 28" fill="none" xmlns="http://www.w3.org/2000/svg">
<path fill-rule="evenodd" clip-rule="evenodd" d="M48.1738 7.60002H50.8821V23H48.1738V7.60002ZM54.6918 11.3841H57.356V13.1441C57.5468 12.8801 57.7523 12.6308 57.9725 12.3961C58.1927 12.1614 58.4459 11.9488 58.7322 11.7581C59.0184 11.5674 59.3413 11.4171 59.701 11.3071C60.0606 11.1971 60.4606 11.1421 60.901 11.1421C61.7377 11.1421 62.4459 11.3291 63.0257 11.7031C63.6056 12.0771 64.0496 12.5721 64.3579 13.1881C64.8276 12.5721 65.3817 12.0771 66.0202 11.7031C66.6588 11.3291 67.4184 11.1421 68.2992 11.1421C69.5762 11.1421 70.5744 11.5271 71.2937 12.2971C72.0129 13.0671 72.3726 14.1634 72.3726 15.5861V23.0001H69.7083V16.4001C69.7083 15.4761 69.5028 14.7721 69.0918 14.2881C68.6808 13.8041 68.101 13.5621 67.3524 13.5621C66.6184 13.5621 66.0203 13.8078 65.5579 14.2991C65.0955 14.7904 64.8643 15.5054 64.8643 16.4441V23.0001H62.2001V16.3781C62.2001 15.4688 61.9946 14.7721 61.5835 14.2881C61.1725 13.8041 60.5927 13.5621 59.8441 13.5621C59.0955 13.5621 58.4936 13.8188 58.0386 14.3321C57.5835 14.8454 57.356 15.5568 57.356 16.4661V23.0001H54.6918V11.3841ZM82.7874 18.138C82.4498 18.006 82.0498 17.896 81.5874 17.808C81.125 17.72 80.637 17.676 80.1232 17.676C79.2865 17.676 78.6333 17.8374 78.1636 18.16C77.6938 18.4827 77.459 18.9227 77.459 19.48V19.524C77.459 20.0814 77.6755 20.5067 78.1085 20.8C78.5415 21.0934 79.0736 21.24 79.7048 21.24C80.1452 21.24 80.5526 21.1814 80.9269 21.064C81.3012 20.9467 81.6278 20.7817 81.9067 20.569C82.1856 20.3564 82.4021 20.0997 82.5562 19.799C82.7104 19.4984 82.7874 19.1647 82.7874 18.798V18.138ZM82.7215 23V21.57C82.3251 22.0393 81.8187 22.4353 81.2022 22.758C80.5857 23.0807 79.8371 23.242 78.9563 23.242C78.3985 23.242 77.8701 23.165 77.371 23.011C76.8719 22.857 76.4352 22.6297 76.0609 22.329C75.6866 22.0283 75.3857 21.6543 75.1581 21.207C74.9306 20.7597 74.8169 20.2427 74.8169 19.656V19.612C74.8169 18.9667 74.9343 18.4057 75.1691 17.929C75.404 17.4523 75.7306 17.0563 76.149 16.741C76.5673 16.4257 77.0664 16.191 77.6462 16.037C78.226 15.883 78.8536 15.806 79.5288 15.806C80.2334 15.806 80.8315 15.85 81.3233 15.938C81.815 16.026 82.2884 16.1433 82.7435 16.29V16.07C82.7435 15.2633 82.4976 14.6473 82.0059 14.222C81.5141 13.7967 80.8059 13.584 79.8811 13.584C79.2205 13.584 78.6334 13.65 78.1196 13.782C77.6059 13.914 77.0848 14.09 76.5563 14.31L75.8297 12.176C76.4756 11.8827 77.1361 11.648 77.8114 11.472C78.4866 11.296 79.3013 11.208 80.2554 11.208C81.9875 11.208 83.2719 11.637 84.1086 12.495C84.9453 13.353 85.3637 14.5593 85.3637 16.114V23H82.7215ZM93.9281 19.832C94.3832 19.832 94.8199 19.755 95.2382 19.601C95.6566 19.447 96.0199 19.227 96.3282 18.941C96.6364 18.655 96.8823 18.3177 97.0658 17.929C97.2493 17.5403 97.341 17.1113 97.341 16.642V16.598C97.341 16.114 97.2493 15.6777 97.0658 15.289C96.8823 14.9003 96.6364 14.563 96.3282 14.277C96.0199 13.991 95.6566 13.771 95.2382 13.617C94.8199 13.463 94.3832 13.386 93.9281 13.386C93.4584 13.386 93.0254 13.463 92.6291 13.617C92.2327 13.771 91.8841 13.9873 91.5832 14.266C91.2823 14.5447 91.0474 14.8783 90.8786 15.267C90.7098 15.6557 90.6254 16.092 90.6254 16.576V16.62C90.6254 17.104 90.7135 17.5403 90.8896 17.929C91.0658 18.3177 91.3006 18.655 91.5942 18.941C91.8878 19.227 92.2364 19.447 92.6401 19.601C93.0437 19.755 93.4731 19.832 93.9281 19.832ZM93.7075 26.5641C91.7698 26.5641 90.0377 26.1021 88.5111 25.1781L89.5019 23.1761C90.1185 23.5574 90.7643 23.8581 91.4396 24.0781C92.1148 24.2981 92.8487 24.4081 93.6414 24.4081C94.8304 24.4081 95.7405 24.1074 96.3717 23.5061C97.0029 22.9048 97.3185 22.0174 97.3185 20.8441V19.9421C96.8341 20.5728 96.2689 21.0861 95.6231 21.4821C94.9772 21.8781 94.1772 22.0761 93.2231 22.0761C92.5331 22.0761 91.8726 21.9514 91.2414 21.7021C90.6102 21.4528 90.0487 21.0971 89.557 20.6351C89.0652 20.1731 88.6726 19.6048 88.379 18.9301C88.0854 18.2554 87.9386 17.4928 87.9386 16.6421V16.5981C87.9386 15.7474 88.0854 14.9811 88.379 14.2991C88.6726 13.6171 89.0652 13.0451 89.557 12.5831C90.0487 12.1211 90.6139 11.7654 91.2524 11.5161C91.8909 11.2668 92.5478 11.1421 93.2231 11.1421C94.2066 11.1421 95.0176 11.3364 95.6561 11.7251C96.2946 12.1138 96.8414 12.5794 97.2965 13.1221V11.3841H99.9607V20.6241C99.9607 22.5601 99.469 24.0194 98.4855 25.0021C97.957 25.5301 97.2928 25.9224 96.4928 26.1791C95.6928 26.4358 94.7644 26.5641 93.7075 26.5641ZM111.257 16.3781C111.213 15.9527 111.117 15.5531 110.97 15.1791C110.824 14.8051 110.625 14.4824 110.376 14.2111C110.126 13.9397 109.829 13.7234 109.484 13.5621C109.139 13.4007 108.747 13.3201 108.306 13.3201C107.484 13.3201 106.805 13.6024 106.269 14.1671C105.734 14.7317 105.407 15.4687 105.29 16.3781H111.257ZM108.615 23.2641C107.778 23.2641 106.997 23.1174 106.27 22.8241C105.543 22.5308 104.912 22.1201 104.376 21.5921C103.841 21.0641 103.419 20.4298 103.11 19.6891C102.802 18.9484 102.648 18.1308 102.648 17.2361V17.1921C102.648 16.3561 102.788 15.5714 103.066 14.8381C103.345 14.1048 103.738 13.4631 104.244 12.9131C104.751 12.3631 105.349 11.9304 106.039 11.6151C106.729 11.2998 107.492 11.1421 108.329 11.1421C109.254 11.1421 110.065 11.3108 110.762 11.6481C111.459 11.9854 112.039 12.4401 112.501 13.0121C112.964 13.5841 113.312 14.2478 113.547 15.0031C113.782 15.7584 113.899 16.5541 113.899 17.3901C113.899 17.5074 113.896 17.6284 113.888 17.7531C113.881 17.8778 113.87 18.0061 113.855 18.1381H105.312C105.459 19.0914 105.837 19.8211 106.446 20.3271C107.055 20.8331 107.793 21.0861 108.659 21.0861C109.32 21.0861 109.892 20.9688 110.377 20.7341C110.861 20.4994 111.338 20.1548 111.808 19.7001L113.371 21.0861C112.813 21.7461 112.149 22.2741 111.378 22.6701C110.608 23.0661 109.687 23.2641 108.615 23.2641ZM123.565 15.234C124.534 15.234 125.305 15.003 125.877 14.541C126.45 14.079 126.736 13.452 126.736 12.66V12.616C126.736 11.78 126.457 11.1456 125.899 10.713C125.341 10.2803 124.556 10.064 123.543 10.064H119.602V15.234H123.565ZM116.893 7.6001H123.763C124.732 7.6001 125.591 7.73576 126.339 8.0071C127.088 8.27843 127.712 8.6561 128.211 9.1401C128.622 9.56543 128.938 10.0568 129.158 10.6141C129.378 11.1714 129.488 11.7874 129.488 12.4621V12.5061C129.488 13.1368 129.396 13.7051 129.213 14.2111C129.029 14.7171 128.776 15.1644 128.453 15.5531C128.13 15.9418 127.745 16.2718 127.297 16.5431C126.849 16.8144 126.354 17.0234 125.811 17.1701L129.972 23.0001H126.78L122.993 17.6321H119.602V23.0001H116.893V7.6001ZM140.475 16.3781C140.431 15.9527 140.336 15.5531 140.189 15.1791C140.042 14.8051 139.844 14.4824 139.595 14.2111C139.345 13.9397 139.048 13.7234 138.703 13.5621C138.358 13.4007 137.965 13.3201 137.525 13.3201C136.703 13.3201 136.024 13.6024 135.488 14.1671C134.952 14.7317 134.626 15.4687 134.508 16.3781H140.475ZM137.833 23.2641C136.997 23.2641 136.215 23.1174 135.488 22.8241C134.762 22.5308 134.131 22.1201 133.595 21.5921C133.059 21.0641 132.637 20.4298 132.329 19.6891C132.02 18.9484 131.866 18.1308 131.866 17.2361V17.1921C131.866 16.3561 132.006 15.5714 132.285 14.8381C132.564 14.1048 132.956 13.4631 133.463 12.9131C133.969 12.3631 134.567 11.9304 135.257 11.6151C135.947 11.2998 136.71 11.1421 137.547 11.1421C138.472 11.1421 139.283 11.3108 139.98 11.6481C140.677 11.9854 141.257 12.4401 141.72 13.0121C142.182 13.5841 142.531 14.2478 142.765 15.0031C143 15.7584 143.118 16.5541 143.118 17.3901C143.118 17.5074 143.114 17.6284 143.107 17.7531C143.099 17.8778 143.088 18.0061 143.074 18.1381H134.53C134.677 19.0914 135.055 19.8211 135.664 20.3271C136.274 20.8331 137.011 21.0861 137.877 21.0861C138.538 21.0861 139.11 20.9688 139.595 20.7341C140.079 20.4994 140.556 20.1548 141.026 19.7001L142.589 21.0861C142.031 21.7461 141.367 22.2741 140.597 22.6701C139.826 23.0661 138.905 23.2641 137.833 23.2641ZM149.789 23.22C148.953 23.22 148.105 23.0734 147.246 22.78C146.387 22.4867 145.591 22.054 144.857 21.482L146.046 19.678C146.677 20.1474 147.319 20.503 147.973 20.745C148.626 20.987 149.253 21.108 149.855 21.108C150.428 21.108 150.872 20.9944 151.187 20.767C151.503 20.5397 151.661 20.2354 151.661 19.854V19.81C151.661 19.59 151.591 19.3994 151.452 19.238C151.312 19.0767 151.121 18.9374 150.879 18.82C150.637 18.7027 150.358 18.5927 150.042 18.49C149.727 18.3874 149.4 18.2847 149.063 18.182C148.637 18.0647 148.208 17.9254 147.775 17.764C147.342 17.6027 146.953 17.3937 146.608 17.137C146.263 16.8804 145.98 16.5614 145.76 16.18C145.54 15.7987 145.43 15.3294 145.43 14.772V14.728C145.43 14.1854 145.536 13.694 145.749 13.254C145.962 12.814 146.255 12.44 146.63 12.132C147.004 11.824 147.444 11.5894 147.951 11.428C148.457 11.2667 148.997 11.186 149.569 11.186C150.303 11.186 151.044 11.3034 151.793 11.538C152.542 11.7727 153.224 12.0954 153.841 12.506L152.784 14.398C152.226 14.0607 151.661 13.793 151.088 13.595C150.516 13.397 149.987 13.298 149.503 13.298C148.989 13.298 148.589 13.408 148.303 13.628C148.017 13.848 147.874 14.1267 147.874 14.464V14.508C147.874 14.7134 147.947 14.893 148.094 15.047C148.241 15.201 148.435 15.3404 148.677 15.465C148.92 15.5897 149.198 15.707 149.514 15.817C149.83 15.927 150.156 16.0334 150.494 16.136C150.92 16.268 151.345 16.422 151.771 16.598C152.197 16.774 152.582 16.9904 152.927 17.247C153.272 17.5037 153.554 17.8154 153.775 18.182C153.995 18.5487 154.105 18.996 154.105 19.524V19.568C154.105 20.184 153.995 20.7194 153.775 21.174C153.554 21.6287 153.25 22.0064 152.861 22.307C152.472 22.6077 152.013 22.835 151.485 22.989C150.956 23.143 150.391 23.22 149.789 23.22ZM156.967 11.384H159.631V23H156.967V11.384ZM156.856 7.07202H159.719V9.60202H156.856V7.07202ZM162.582 21.174L169.298 13.562H162.825V11.384H172.689V13.21L165.973 20.822H172.689V23H162.582V21.174ZM183.412 16.3781C183.368 15.9527 183.272 15.5531 183.126 15.1791C182.979 14.8051 182.781 14.4824 182.531 14.2111C182.282 13.9397 181.984 13.7234 181.639 13.5621C181.294 13.4007 180.902 13.3201 180.461 13.3201C179.639 13.3201 178.96 13.6024 178.425 14.1671C177.889 14.7317 177.562 15.4687 177.445 16.3781H183.412ZM180.769 23.2641C179.932 23.2641 179.151 23.1174 178.424 22.8241C177.698 22.5308 177.066 22.1201 176.531 21.5921C175.995 21.0641 175.573 20.4298 175.265 19.6891C174.956 18.9484 174.802 18.1308 174.802 17.2361V17.1921C174.802 16.3561 174.942 15.5714 175.221 14.8381C175.499 14.1048 175.892 13.4631 176.399 12.9131C176.905 12.3631 177.503 11.9304 178.193 11.6151C178.883 11.2998 179.646 11.1421 180.483 11.1421C181.408 11.1421 182.219 11.3108 182.916 11.6481C183.613 11.9854 184.193 12.4401 184.655 13.0121C185.118 13.5841 185.466 14.2478 185.701 15.0031C185.936 15.7584 186.054 16.5541 186.054 17.3901C186.054 17.5074 186.05 17.6284 186.043 17.7531C186.035 17.8778 186.024 18.0061 186.01 18.1381H177.466C177.613 19.0914 177.991 19.8211 178.6 20.3271C179.21 20.8331 179.947 21.0861 180.813 21.0861C181.474 21.0861 182.046 20.9688 182.531 20.7341C183.015 20.4994 183.492 20.1548 183.962 19.7001L185.525 21.0861C184.967 21.7461 184.303 22.2741 183.532 22.6701C182.762 23.0661 181.841 23.2641 180.769 23.2641Z" fill="#757575"/>
<path fill-rule="evenodd" clip-rule="evenodd" d="M191.384 20.5341H193.78V23.0001H191.384V20.5341ZM200.932 21.3261C201.377 21.3261 201.776 21.2451 202.13 21.0831C202.485 20.9211 202.788 20.7021 203.04 20.4261C203.292 20.1501 203.484 19.8291 203.617 19.4631C203.749 19.0971 203.815 18.7101 203.815 18.3021V18.2661C203.815 17.8461 203.743 17.4501 203.599 17.0781C203.454 16.7061 203.253 16.3821 202.995 16.1061C202.737 15.8301 202.431 15.6111 202.076 15.4491C201.722 15.2871 201.329 15.2061 200.896 15.2061C200.464 15.2061 200.071 15.2871 199.716 15.4491C199.362 15.6111 199.059 15.8271 198.807 16.0971C198.554 16.3671 198.362 16.6881 198.23 17.0601C198.098 17.4321 198.032 17.8221 198.032 18.2301V18.2661C198.032 18.6861 198.104 19.0791 198.248 19.4451C198.392 19.8111 198.593 20.1351 198.852 20.4171C199.11 20.6991 199.416 20.9211 199.77 21.0831C200.125 21.2451 200.512 21.3261 200.932 21.3261ZM200.896 23.2161C200.176 23.2161 199.506 23.0871 198.888 22.8291C198.269 22.5711 197.735 22.2201 197.284 21.7761C196.834 21.3321 196.483 20.8101 196.231 20.2101C195.978 19.6101 195.852 18.9741 195.852 18.3021V18.2661C195.852 17.5821 195.981 16.9401 196.24 16.3401C196.498 15.7401 196.852 15.2151 197.302 14.7651C197.753 14.3151 198.287 13.9581 198.906 13.6941C199.524 13.4301 200.2 13.2981 200.933 13.2981C201.665 13.2981 202.341 13.4271 202.959 13.6851C203.578 13.9431 204.112 14.2971 204.563 14.7471C205.013 15.1971 205.364 15.7191 205.616 16.3131C205.869 16.9071 205.995 17.5461 205.995 18.2301V18.2661C205.995 18.9381 205.866 19.5741 205.607 20.1741C205.349 20.7741 204.995 21.2991 204.545 21.7491C204.094 22.1991 203.557 22.5561 202.932 22.8201C202.308 23.0841 201.629 23.2161 200.896 23.2161ZM208.21 13.4962H210.39V15.6382C210.69 14.9182 211.116 14.3422 211.669 13.9102C212.221 13.4782 212.918 13.2802 213.759 13.3162V15.6202H213.632C213.152 15.6202 212.714 15.6982 212.317 15.8542C211.921 16.0102 211.579 16.2442 211.291 16.5562C211.002 16.8682 210.78 17.2612 210.624 17.7352C210.468 18.2092 210.39 18.7582 210.39 19.3822V23.0002H208.21V13.4962ZM220.064 20.408C220.437 20.408 220.794 20.345 221.136 20.219C221.478 20.093 221.776 19.913 222.028 19.679C222.28 19.445 222.481 19.169 222.631 18.851C222.781 18.533 222.857 18.182 222.857 17.798V17.762C222.857 17.366 222.781 17.009 222.631 16.691C222.481 16.373 222.28 16.097 222.028 15.863C221.776 15.629 221.478 15.449 221.136 15.323C220.794 15.197 220.437 15.134 220.064 15.134C219.68 15.134 219.326 15.197 219.001 15.323C218.677 15.449 218.392 15.626 218.146 15.854C217.899 16.082 217.707 16.355 217.569 16.673C217.431 16.991 217.362 17.348 217.362 17.744V17.78C217.362 18.176 217.434 18.533 217.578 18.851C217.722 19.169 217.914 19.445 218.155 19.679C218.395 19.913 218.68 20.093 219.01 20.219C219.341 20.345 219.692 20.408 220.064 20.408ZM219.884 25.9161C218.298 25.9161 216.881 25.5381 215.632 24.7821L216.443 23.1441C216.947 23.4561 217.476 23.7021 218.028 23.8821C218.581 24.0621 219.181 24.1521 219.83 24.1521C220.802 24.1521 221.547 23.9061 222.063 23.4141C222.58 22.9221 222.838 22.1961 222.838 21.2361V20.4981C222.442 21.0141 221.979 21.4341 221.451 21.7581C220.923 22.0821 220.268 22.2441 219.487 22.2441C218.923 22.2441 218.382 22.1421 217.866 21.9381C217.35 21.7341 216.89 21.4431 216.488 21.0651C216.085 20.6871 215.764 20.2221 215.524 19.6701C215.284 19.1181 215.164 18.4941 215.164 17.7981V17.7621C215.164 17.0661 215.284 16.4391 215.524 15.8811C215.764 15.3231 216.085 14.8551 216.488 14.4771C216.89 14.0991 217.353 13.8081 217.875 13.6041C218.397 13.4001 218.935 13.2981 219.487 13.2981C220.292 13.2981 220.956 13.4571 221.478 13.7751C222 14.0931 222.448 14.4741 222.82 14.9181V13.4961H225V21.0561C225 22.6401 224.598 23.8341 223.793 24.6381C223.361 25.0701 222.817 25.3911 222.163 25.6011C221.508 25.8111 220.748 25.9161 219.884 25.9161Z" fill="#757575"/>
<path d="M3.00244 13.9649L13.9758 3V5H31.0275V26H5.00244V13.9649H3.00244Z" stroke="#29B6F6" stroke-width="4"/>
<rect x="1.5" y="1.5" width="7.00837" height="7" stroke="#9CCC65" stroke-width="3"/>
</svg>
