<svg width="225" height="28" viewBox="0 0 225 28" fill="none" xmlns="http://www.w3.org/2000/svg">
<path fill-rule="evenodd" clip-rule="evenodd" d="M48.134 7.60002H50.84V23H48.134V7.60002ZM54.646 11.384H57.308V13.144C57.4987 12.88 57.704 12.6307 57.924 12.396C58.144 12.1614 58.397 11.9487 58.683 11.758C58.969 11.5674 59.2917 11.417 59.651 11.307C60.0103 11.197 60.41 11.142 60.85 11.142C61.686 11.142 62.3937 11.329 62.973 11.703C63.5523 12.077 63.996 12.572 64.304 13.188C64.7733 12.572 65.327 12.077 65.965 11.703C66.603 11.329 67.362 11.142 68.242 11.142C69.518 11.142 70.5153 11.527 71.234 12.297C71.9527 13.067 72.312 14.1633 72.312 15.586V23H69.65V16.4C69.65 15.476 69.4447 14.772 69.034 14.288C68.6233 13.804 68.044 13.562 67.296 13.562C66.5627 13.562 65.965 13.8077 65.503 14.299C65.041 14.7904 64.81 15.5054 64.81 16.444V23H62.148V16.378C62.148 15.4687 61.9427 14.772 61.532 14.288C61.1213 13.804 60.542 13.562 59.794 13.562C59.046 13.562 58.4447 13.8187 57.99 14.332C57.5353 14.8454 57.308 15.5567 57.308 16.466V23H54.646V11.384ZM82.718 18.138C82.3807 18.006 81.981 17.896 81.519 17.808C81.057 17.72 80.5693 17.676 80.056 17.676C79.22 17.676 78.5673 17.8374 78.098 18.16C77.6287 18.4827 77.394 18.9227 77.394 19.48V19.524C77.394 20.0814 77.6103 20.5067 78.043 20.8C78.4757 21.0934 79.0073 21.24 79.638 21.24C80.078 21.24 80.485 21.1814 80.859 21.064C81.233 20.9467 81.5593 20.7817 81.838 20.569C82.1167 20.3564 82.333 20.0997 82.487 19.799C82.641 19.4984 82.718 19.1647 82.718 18.798V18.138ZM82.652 23V21.57C82.256 22.0394 81.75 22.4354 81.134 22.758C80.518 23.0807 79.77 23.242 78.89 23.242C78.3327 23.242 77.8047 23.165 77.306 23.011C76.8073 22.857 76.371 22.6297 75.997 22.329C75.623 22.0284 75.3223 21.6544 75.095 21.207C74.8677 20.7597 74.754 20.2427 74.754 19.656V19.612C74.754 18.9667 74.8713 18.4057 75.106 17.929C75.3407 17.4524 75.667 17.0564 76.085 16.741C76.503 16.4257 77.0017 16.191 77.581 16.037C78.1603 15.883 78.7873 15.806 79.462 15.806C80.166 15.806 80.7637 15.85 81.255 15.938C81.7463 16.026 82.2193 16.1434 82.674 16.29V16.07C82.674 15.2634 82.4283 14.6474 81.937 14.222C81.4457 13.7967 80.738 13.584 79.814 13.584C79.154 13.584 78.5673 13.65 78.054 13.782C77.5407 13.914 77.02 14.09 76.492 14.31L75.766 12.176C76.4113 11.8827 77.0713 11.648 77.746 11.472C78.4207 11.296 79.2347 11.208 80.188 11.208C81.9187 11.208 83.202 11.637 84.038 12.495C84.874 13.353 85.292 14.5593 85.292 16.114V23H82.652ZM93.85 19.832C94.3047 19.832 94.741 19.755 95.159 19.601C95.577 19.447 95.94 19.227 96.248 18.941C96.556 18.655 96.8017 18.3177 96.985 17.929C97.1683 17.5404 97.26 17.1114 97.26 16.642V16.598C97.26 16.114 97.1683 15.6777 96.985 15.289C96.8017 14.9004 96.556 14.563 96.248 14.277C95.94 13.991 95.577 13.771 95.159 13.617C94.741 13.463 94.3047 13.386 93.85 13.386C93.3807 13.386 92.948 13.463 92.552 13.617C92.156 13.771 91.8077 13.9874 91.507 14.266C91.2063 14.5447 90.9717 14.8784 90.803 15.267C90.6343 15.6557 90.55 16.092 90.55 16.576V16.62C90.55 17.104 90.638 17.5404 90.814 17.929C90.99 18.3177 91.2247 18.655 91.518 18.941C91.8113 19.227 92.1597 19.447 92.563 19.601C92.9663 19.755 93.3953 19.832 93.85 19.832ZM93.63 26.564C91.694 26.564 89.9633 26.102 88.438 25.178L89.428 23.176C90.044 23.5574 90.6893 23.858 91.364 24.078C92.0387 24.298 92.772 24.408 93.564 24.408C94.752 24.408 95.6613 24.1074 96.292 23.506C96.9227 22.9047 97.238 22.0174 97.238 20.844V19.942C96.754 20.5727 96.1893 21.086 95.544 21.482C94.8987 21.878 94.0993 22.076 93.146 22.076C92.4567 22.076 91.7967 21.9514 91.166 21.702C90.5353 21.4527 89.9743 21.097 89.483 20.635C88.9917 20.173 88.5993 19.6047 88.306 18.93C88.0127 18.2554 87.866 17.4927 87.866 16.642V16.598C87.866 15.7474 88.0127 14.981 88.306 14.299C88.5993 13.617 88.9917 13.045 89.483 12.583C89.9743 12.121 90.539 11.7654 91.177 11.516C91.815 11.2667 92.4713 11.142 93.146 11.142C94.1287 11.142 94.939 11.3364 95.577 11.725C96.215 12.1137 96.7613 12.5794 97.216 13.122V11.384H99.878V20.624C99.878 22.56 99.3867 24.0193 98.404 25.002C97.876 25.53 97.2123 25.9224 96.413 26.179C95.6137 26.4357 94.686 26.564 93.63 26.564ZM111.164 16.378C111.12 15.9527 111.025 15.553 110.878 15.179C110.731 14.805 110.533 14.4824 110.284 14.211C110.035 13.9397 109.738 13.7234 109.393 13.562C109.048 13.4007 108.656 13.32 108.216 13.32C107.395 13.32 106.716 13.6024 106.181 14.167C105.646 14.7317 105.319 15.4687 105.202 16.378H111.164ZM108.524 23.264C107.688 23.264 106.907 23.1174 106.181 22.824C105.455 22.5307 104.824 22.12 104.289 21.592C103.754 21.064 103.332 20.4297 103.024 19.689C102.716 18.9484 102.562 18.1307 102.562 17.236V17.192C102.562 16.356 102.701 15.5714 102.98 14.838C103.259 14.1047 103.651 13.463 104.157 12.913C104.663 12.363 105.261 11.9304 105.95 11.615C106.639 11.2997 107.402 11.142 108.238 11.142C109.162 11.142 109.972 11.3107 110.669 11.648C111.366 11.9854 111.945 12.44 112.407 13.012C112.869 13.584 113.217 14.2477 113.452 15.003C113.687 15.7584 113.804 16.554 113.804 17.39C113.804 17.5074 113.8 17.6284 113.793 17.753C113.786 17.8777 113.775 18.006 113.76 18.138H105.224C105.371 19.0914 105.748 19.821 106.357 20.327C106.966 20.833 107.703 21.086 108.568 21.086C109.228 21.086 109.8 20.9687 110.284 20.734C110.768 20.4994 111.245 20.1547 111.714 19.7L113.276 21.086C112.719 21.746 112.055 22.274 111.285 22.67C110.515 23.066 109.595 23.264 108.524 23.264ZM123.462 15.234C124.43 15.234 125.2 15.003 125.772 14.541C126.344 14.079 126.63 13.452 126.63 12.66V12.616C126.63 11.78 126.351 11.1457 125.794 10.713C125.237 10.2804 124.452 10.064 123.44 10.064H119.502V15.234H123.462ZM116.796 7.60002H123.66C124.628 7.60002 125.486 7.73569 126.234 8.00702C126.982 8.27836 127.605 8.65602 128.104 9.14002C128.515 9.56536 128.83 10.0567 129.05 10.614C129.27 11.1714 129.38 11.7874 129.38 12.462V12.506C129.38 13.1367 129.288 13.705 129.105 14.211C128.922 14.717 128.669 15.1644 128.346 15.553C128.023 15.9417 127.638 16.2717 127.191 16.543C126.744 16.8144 126.249 17.0234 125.706 17.17L129.864 23H126.674L122.89 17.632H119.502V23H116.796V7.60002ZM140.358 16.378C140.314 15.9527 140.219 15.553 140.072 15.179C139.925 14.805 139.727 14.4824 139.478 14.211C139.229 13.9397 138.932 13.7234 138.587 13.562C138.242 13.4007 137.85 13.32 137.41 13.32C136.589 13.32 135.91 13.6024 135.375 14.167C134.84 14.7317 134.513 15.4687 134.396 16.378H140.358ZM137.718 23.264C136.882 23.264 136.101 23.1174 135.375 22.824C134.649 22.5307 134.018 22.12 133.483 21.592C132.948 21.064 132.526 20.4297 132.218 19.689C131.91 18.9484 131.756 18.1307 131.756 17.236V17.192C131.756 16.356 131.895 15.5714 132.174 14.838C132.453 14.1047 132.845 13.463 133.351 12.913C133.857 12.363 134.455 11.9304 135.144 11.615C135.833 11.2997 136.596 11.142 137.432 11.142C138.356 11.142 139.166 11.3107 139.863 11.648C140.56 11.9854 141.139 12.44 141.601 13.012C142.063 13.584 142.411 14.2477 142.646 15.003C142.881 15.7584 142.998 16.554 142.998 17.39C142.998 17.5074 142.994 17.6284 142.987 17.753C142.98 17.8777 142.969 18.006 142.954 18.138H134.418C134.565 19.0914 134.942 19.821 135.551 20.327C136.16 20.833 136.897 21.086 137.762 21.086C138.422 21.086 138.994 20.9687 139.478 20.734C139.962 20.4994 140.439 20.1547 140.908 19.7L142.47 21.086C141.913 21.746 141.249 22.274 140.479 22.67C139.709 23.066 138.789 23.264 137.718 23.264ZM149.664 23.22C148.828 23.22 147.981 23.0734 147.123 22.78C146.265 22.4867 145.469 22.054 144.736 21.482L145.924 19.678C146.555 20.1474 147.196 20.503 147.849 20.745C148.502 20.987 149.129 21.108 149.73 21.108C150.302 21.108 150.746 20.9944 151.061 20.767C151.376 20.5397 151.534 20.2354 151.534 19.854V19.81C151.534 19.59 151.464 19.3994 151.325 19.238C151.186 19.0767 150.995 18.9374 150.753 18.82C150.511 18.7027 150.232 18.5927 149.917 18.49C149.602 18.3874 149.275 18.2847 148.938 18.182C148.513 18.0647 148.084 17.9254 147.651 17.764C147.218 17.6027 146.83 17.3937 146.485 17.137C146.14 16.8804 145.858 16.5614 145.638 16.18C145.418 15.7987 145.308 15.3294 145.308 14.772V14.728C145.308 14.1854 145.414 13.694 145.627 13.254C145.84 12.814 146.133 12.44 146.507 12.132C146.881 11.824 147.321 11.5894 147.827 11.428C148.333 11.2667 148.872 11.186 149.444 11.186C150.177 11.186 150.918 11.3034 151.666 11.538C152.414 11.7727 153.096 12.0954 153.712 12.506L152.656 14.398C152.099 14.0607 151.534 13.793 150.962 13.595C150.39 13.397 149.862 13.298 149.378 13.298C148.865 13.298 148.465 13.408 148.179 13.628C147.893 13.848 147.75 14.1267 147.75 14.464V14.508C147.75 14.7134 147.823 14.893 147.97 15.047C148.117 15.201 148.311 15.3404 148.553 15.465C148.795 15.5897 149.074 15.707 149.389 15.817C149.704 15.927 150.031 16.0334 150.368 16.136C150.793 16.268 151.219 16.422 151.644 16.598C152.069 16.774 152.454 16.9904 152.799 17.247C153.144 17.5037 153.426 17.8154 153.646 18.182C153.866 18.5487 153.976 18.996 153.976 19.524V19.568C153.976 20.184 153.866 20.7194 153.646 21.174C153.426 21.6287 153.122 22.0064 152.733 22.307C152.344 22.6077 151.886 22.835 151.358 22.989C150.83 23.143 150.265 23.22 149.664 23.22ZM156.836 11.384H159.498V23H156.836V11.384ZM156.726 7.07202H159.586V9.60202H156.726V7.07202ZM162.446 21.174L169.156 13.562H162.688V11.384H172.544V13.21L165.834 20.822H172.544V23H162.446V21.174ZM183.258 16.378C183.214 15.9527 183.119 15.553 182.972 15.179C182.825 14.805 182.627 14.4824 182.378 14.211C182.129 13.9397 181.832 13.7234 181.487 13.562C181.142 13.4007 180.75 13.32 180.31 13.32C179.489 13.32 178.81 13.6024 178.275 14.167C177.74 14.7317 177.413 15.4687 177.296 16.378H183.258ZM180.618 23.264C179.782 23.264 179.001 23.1174 178.275 22.824C177.549 22.5307 176.918 22.12 176.383 21.592C175.848 21.064 175.426 20.4297 175.118 19.689C174.81 18.9484 174.656 18.1307 174.656 17.236V17.192C174.656 16.356 174.795 15.5714 175.074 14.838C175.353 14.1047 175.745 13.463 176.251 12.913C176.757 12.363 177.355 11.9304 178.044 11.615C178.733 11.2997 179.496 11.142 180.332 11.142C181.256 11.142 182.066 11.3107 182.763 11.648C183.46 11.9854 184.039 12.44 184.501 13.012C184.963 13.584 185.311 14.2477 185.546 15.003C185.781 15.7584 185.898 16.554 185.898 17.39C185.898 17.5074 185.894 17.6284 185.887 17.753C185.88 17.8777 185.869 18.006 185.854 18.138H177.318C177.465 19.0914 177.842 19.821 178.451 20.327C179.06 20.833 179.797 21.086 180.662 21.086C181.322 21.086 181.894 20.9687 182.378 20.734C182.862 20.4994 183.339 20.1547 183.808 19.7L185.37 21.086C184.813 21.746 184.149 22.274 183.379 22.67C182.609 23.066 181.689 23.264 180.618 23.264Z" fill="#757575"/>
<path fill-rule="evenodd" clip-rule="evenodd" d="M191.224 20.534H193.618V23H191.224V20.534ZM200.764 21.326C201.208 21.326 201.607 21.245 201.961 21.083C202.315 20.921 202.618 20.702 202.87 20.426C203.122 20.15 203.314 19.829 203.446 19.463C203.578 19.097 203.644 18.71 203.644 18.302V18.266C203.644 17.846 203.572 17.45 203.428 17.078C203.284 16.706 203.083 16.382 202.825 16.106C202.567 15.83 202.261 15.611 201.907 15.449C201.553 15.287 201.16 15.206 200.728 15.206C200.296 15.206 199.903 15.287 199.549 15.449C199.195 15.611 198.892 15.827 198.64 16.097C198.388 16.367 198.196 16.688 198.064 17.06C197.932 17.432 197.866 17.822 197.866 18.23V18.266C197.866 18.686 197.938 19.079 198.082 19.445C198.226 19.811 198.427 20.135 198.685 20.417C198.943 20.699 199.249 20.921 199.603 21.083C199.957 21.245 200.344 21.326 200.764 21.326ZM200.728 23.216C200.008 23.216 199.339 23.087 198.721 22.829C198.103 22.571 197.569 22.22 197.119 21.776C196.669 21.332 196.318 20.81 196.066 20.21C195.814 19.61 195.688 18.974 195.688 18.302V18.266C195.688 17.582 195.817 16.94 196.075 16.34C196.333 15.74 196.687 15.215 197.137 14.765C197.587 14.315 198.121 13.958 198.739 13.694C199.357 13.43 200.032 13.298 200.764 13.298C201.496 13.298 202.171 13.427 202.789 13.685C203.407 13.943 203.941 14.297 204.391 14.747C204.841 15.197 205.192 15.719 205.444 16.313C205.696 16.907 205.822 17.546 205.822 18.23V18.266C205.822 18.938 205.693 19.574 205.435 20.174C205.177 20.774 204.823 21.299 204.373 21.749C203.923 22.199 203.386 22.556 202.762 22.82C202.138 23.084 201.46 23.216 200.728 23.216ZM208.036 13.496H210.214V15.638C210.514 14.918 210.94 14.342 211.492 13.91C212.044 13.478 212.74 13.28 213.58 13.316V15.62H213.454C212.974 15.62 212.536 15.698 212.14 15.854C211.744 16.01 211.402 16.244 211.114 16.556C210.826 16.868 210.604 17.261 210.448 17.735C210.292 18.209 210.214 18.758 210.214 19.382V23H208.036V13.496ZM219.88 20.408C220.252 20.408 220.609 20.345 220.951 20.219C221.293 20.093 221.59 19.913 221.842 19.679C222.094 19.445 222.295 19.169 222.445 18.851C222.595 18.533 222.67 18.182 222.67 17.798V17.762C222.67 17.366 222.595 17.009 222.445 16.691C222.295 16.373 222.094 16.097 221.842 15.863C221.59 15.629 221.293 15.449 220.951 15.323C220.609 15.197 220.252 15.134 219.88 15.134C219.496 15.134 219.142 15.197 218.818 15.323C218.494 15.449 218.209 15.626 217.963 15.854C217.717 16.082 217.525 16.355 217.387 16.673C217.249 16.991 217.18 17.348 217.18 17.744V17.78C217.18 18.176 217.252 18.533 217.396 18.851C217.54 19.169 217.732 19.445 217.972 19.679C218.212 19.913 218.497 20.093 218.827 20.219C219.157 20.345 219.508 20.408 219.88 20.408ZM219.7 25.916C218.116 25.916 216.7 25.538 215.452 24.782L216.262 23.144C216.766 23.456 217.294 23.702 217.846 23.882C218.398 24.062 218.998 24.152 219.646 24.152C220.618 24.152 221.362 23.906 221.878 23.414C222.394 22.922 222.652 22.196 222.652 21.236V20.498C222.256 21.014 221.794 21.434 221.266 21.758C220.738 22.082 220.084 22.244 219.304 22.244C218.74 22.244 218.2 22.142 217.684 21.938C217.168 21.734 216.709 21.443 216.307 21.065C215.905 20.687 215.584 20.222 215.344 19.67C215.104 19.118 214.984 18.494 214.984 17.798V17.762C214.984 17.066 215.104 16.439 215.344 15.881C215.584 15.323 215.905 14.855 216.307 14.477C216.709 14.099 217.171 13.808 217.693 13.604C218.215 13.4 218.752 13.298 219.304 13.298C220.108 13.298 220.771 13.457 221.293 13.775C221.815 14.093 222.262 14.474 222.634 14.918V13.496H224.812V21.056C224.812 22.64 224.41 23.834 223.606 24.638C223.174 25.07 222.631 25.391 221.977 25.601C221.323 25.811 220.564 25.916 219.7 25.916Z" fill="#757575"/>
<path d="M3 13.9649L13.9641 3V5H31V26H5V13.9649H3Z" stroke="#29b6f6" stroke-width="4"/>
<rect x="1.5" y="1.5" width="7" height="7" stroke="#9ccc65" stroke-width="3"/>
</svg>
