<svg width="801" height="801" viewBox="0 0 801 801" fill="none" xmlns="http://www.w3.org/2000/svg">
<g clip-path="url(#clip0)">
<path d="M680.4 555.1H682.1C684 555.1 685.6 554.6 685.6 552.9C685.6 551.6 684.8 550.7 682.3 550.7C681.628 550.692 680.957 550.759 680.3 550.9V555.2L680.4 555.1ZM680.4 562.8H677.8V549.2C679.385 548.929 680.991 548.795 682.6 548.8C684.9 548.8 686 549.2 686.9 549.8C687.7 550.4 688.3 551.5 688.3 552.7C688.3 554.4 687.1 555.5 685.6 556V556.1C686.8 556.6 687.5 557.7 687.9 559.4C688.3 561.5 688.5 562.4 688.9 562.8H686.2C685.8 562.3 685.5 561.1 685.2 559.2C684.9 557.7 684 557.2 682 557.2H680.4V562.8ZM683 568.8C679.526 568.8 676.194 567.42 673.737 564.963C671.28 562.506 669.9 559.174 669.9 555.7C669.9 552.226 671.28 548.894 673.737 546.437C676.194 543.98 679.526 542.6 683 542.6C686.474 542.6 689.806 543.98 692.263 546.437C694.72 548.894 696.1 552.226 696.1 555.7C696.1 559.174 694.72 562.506 692.263 564.963C689.806 567.42 686.474 568.8 683 568.8V568.8ZM693.5 555.8C693.5 553.015 692.394 550.345 690.425 548.375C688.455 546.406 685.785 545.3 683 545.3C680.215 545.3 677.544 546.406 675.575 548.375C673.606 550.345 672.5 553.015 672.5 555.8C672.5 558.585 673.606 561.256 675.575 563.225C677.544 565.194 680.215 566.3 683 566.3C685.785 566.3 688.455 565.194 690.425 563.225C692.394 561.256 693.5 558.585 693.5 555.8V555.8Z" fill="#F91D0A"/>
<path d="M129.3 387.3L133.6 360.1C135 353 137.9 342.9 137.9 334.4H139.3C140.7 342.9 142.2 353 143.6 360.1L147.9 387.3H129.3V387.3ZM150.7 398.8L156.5 430.3H172.2L148 318.6H130.8L105 430.3H120.8L126.5 398.8H150.8H150.7ZM267.7 418.8C257.7 418.8 254.8 403.1 254.8 390.2C254.8 377.3 257.7 360.2 267.8 360.2C277.9 360.2 279.1 377.2 279.1 390.1C279.1 401.5 277.6 418.7 267.6 418.7L267.7 418.8ZM267.7 431.8C279.2 431.8 294.9 421.7 294.9 390.2C295 363 283.5 348.7 267.7 348.7C253.4 348.7 239.1 360.1 239.1 390.2C239.1 417.4 252 431.7 267.7 431.7" fill="#231F20"/>
<path d="M482.9 331.5C484.3 331.5 487.2 330.1 490.1 330.1C502.9 330.1 507.2 340.1 507.2 351.5C507.2 364.5 500.1 373 488.6 373H483V331.5H482.9ZM467.2 430.3H482.9V385.9H488.6C498.6 385.9 508.6 381.6 515.8 374.4C520.1 368.7 523 360.1 523 350.1C523 340.1 520.1 331.5 514.4 325.8C508.7 320 498.7 317.2 487.2 317.2C480 317.2 472.9 318.6 468.6 320L467.2 430.3V430.3ZM545.9 331.5C547.3 330.1 550.2 330.1 551.6 330.1C567.4 330.1 576 345.8 576 371.6C576 407.4 563 417.4 550.2 417.4H545.9V331.4V331.5ZM530.2 430.3H545.9C560.2 430.3 570.2 427.4 577.4 418.8C586 411.7 591.7 395.9 591.7 371.6C591.7 348.6 586 334.4 577.4 327.2C570.2 320 561.6 317.2 548.8 317.2C541.6 317.2 535.8 318.6 530.2 320V430.3V430.3ZM600.3 318.6H644.7V331.5H616V367.3H643.2V381.6H616V430.3H600.2V318.6" fill="#231F20"/>
<path d="M430.2 361H431.9C433.8 361 435.4 360.4 435.4 358.8C435.4 357.5 434.6 356.6 432.1 356.6C431.432 356.559 430.761 356.592 430.1 356.7V361H430.2ZM430.2 368.7H427.6V355C429.186 354.729 430.792 354.595 432.4 354.6C434.7 354.6 435.8 355 436.7 355.6C437.5 356.2 438.1 357.3 438.1 358.6C438.1 360.3 436.9 361.3 435.4 361.8V362C436.6 362.5 437.3 363.5 437.7 365.2C438.1 367.4 438.3 368.2 438.7 368.7H436C435.5 368.2 435.2 367 434.9 365.1C434.6 363.6 433.7 363 431.7 363H430.1V368.7H430.2ZM432.8 374.7C431.08 374.7 429.376 374.361 427.787 373.703C426.198 373.044 424.754 372.08 423.537 370.863C422.321 369.647 421.356 368.203 420.697 366.613C420.039 365.024 419.7 363.32 419.7 361.6C419.7 359.88 420.039 358.176 420.697 356.587C421.356 354.997 422.321 353.553 423.537 352.337C424.754 351.12 426.198 350.156 427.787 349.497C429.376 348.839 431.08 348.5 432.8 348.5C436.261 348.5 439.581 349.875 442.028 352.322C444.475 354.77 445.85 358.089 445.85 361.55C445.85 365.011 444.475 368.33 442.028 370.778C439.581 373.225 436.261 374.6 432.8 374.6V374.7ZM443.3 361.6C443.3 358.815 442.194 356.145 440.225 354.175C438.256 352.206 435.585 351.1 432.8 351.1C430.015 351.1 427.345 352.206 425.376 354.175C423.406 356.145 422.3 358.815 422.3 361.6C422.3 364.385 423.406 367.055 425.376 369.025C427.345 370.994 430.015 372.1 432.8 372.1C435.585 372.1 438.256 370.994 440.225 369.025C442.194 367.055 443.3 364.385 443.3 361.6V361.6Z" fill="#231F20"/>
<path d="M379.8 381.6C379.8 371.6 384.1 360.1 391.3 360.1C398.4 360.1 402.7 367.3 402.7 381.6H379.8V381.6ZM417 393.1V384.5C417 364.5 409.9 348.7 392.7 348.7C375.5 348.7 364.1 364.4 364.1 390.2C364.1 416 374.1 431.7 394.1 431.7C401.9 431.7 409.9 430.3 414.1 427.4L411.3 416C407.223 417.762 402.841 418.713 398.4 418.8C388.4 418.8 379.8 413.1 379.8 393.1H417" fill="#231F20"/>
<path d="M216.6 377.2C216.6 375.5 216.2 373 215.6 371.4C214.3 366.3 210.4 361.5 205.7 361.5C196.3 361.5 192.3 372.9 192.3 389.4C192.3 407.5 196.1 418.9 205.6 418.9C209 418.9 213.2 416.9 215.6 409.2C216.271 407.271 216.609 405.242 216.6 403.2V377.2V377.2ZM232.3 407.2C232.3 414.4 232.7 423.6 232.9 430.2H219.8L218.8 420.6H218.3C214.4 428.5 207.3 431.6 200.7 431.6C187.1 431.6 176.5 416.4 176.5 387.9C176.5 365.4 186.8 348.4 200.9 348.4C207.9 348.4 212.5 351.7 216.2 358H216.5V315.9H232.3V407.2V407.2ZM318.8 403.2C318.8 405.5 319.3 407.7 319.8 409.2C322.3 417 326.5 418.9 329.8 418.9C339.3 418.9 343.2 407.5 343.2 389.4C343.2 372.9 339.1 361.5 329.7 361.5C325 361.5 321.1 366.3 319.7 371.4C319.3 373 318.8 375.5 318.8 377.2V403.2V403.2ZM303.1 316H319V358H319.3C323 351.8 327.5 348.5 334.6 348.5C348.7 348.5 359 365.5 359 388C359 416.5 348.5 431.7 334.8 431.7C328.3 431.7 321.1 428.6 317.2 420.7H316.8L315.8 430.4H302.4C302.6 423.7 303 414.5 303 407.3V315.9L303.1 316Z" fill="#1A171B"/>
<path d="M362.5 364.5C361.457 360.387 359.578 356.533 356.98 353.178C354.382 349.823 351.121 347.039 347.4 345V344.8L351.6 334.9L358 319.1C336.6 237.4 323.7 171.8 335.2 129.3C338.3 118.3 351.2 111.5 364.8 111.5L373.2 111.7H374.7C393.4 111.4 402.3 135.2 403.3 144.5C404.9 160 397.8 186.1 397.8 186.1C397.8 175.5 398.2 158.5 391.5 143.8C383.8 126.8 376.4 116.6 369.7 114.9C366.4 117.2 363.1 121.9 362 130.8C359.7 143.3 359 159.1 359 167.2C359 196 364.7 233.9 375.8 273C377.8 267 379.8 261.2 381.2 255.7L398 190.1C398 190.1 394.3 266 389.2 289C388.2 293.9 386.9 298.7 385.7 303.6C390.511 317.056 396.121 330.213 402.5 343L402.4 343.2C399.8 342.4 396.9 341.9 393.7 341.9C384.2 341.9 375.3 346.9 372.2 349.9C368.44 354.431 365.187 359.361 362.5 364.6V364.5ZM400.8 398.3H422.3V383.3L422.2 377.6V377.4C435.459 397.876 451.139 416.678 468.9 433.4C483.608 446.198 499.709 457.301 516.9 466.5C553.3 461.3 586.7 458.9 614.6 459.2C651.6 459.7 678.7 465.2 689.7 476C694.678 480.997 697.634 487.656 698 494.7C698.1 497.5 696.8 504 696.4 505.7C696.8 503.7 696.8 493.9 667.1 484.4C643.7 477 599.9 477.2 547.4 482.8C608.1 512.5 667.4 527.3 686.1 518.4C690.7 516.2 696.3 508.6 696.3 508.6C696.3 508.6 692.9 523.6 690.6 527.4C687.6 531.4 681.6 535.9 676 537.4C646.3 545.2 569.2 527 502 488.5C426.9 499.6 344.4 520 278.3 541.7C213.3 655.7 164.4 707.9 124.7 688L110.1 680.7C104.1 677.3 103.2 669 104.6 662.3C109.2 639.6 137.6 605.5 194.8 571.3C200.9 567.6 228.3 553.2 228.3 553.2C228.3 553.2 208 572.8 203.3 576.6C157.7 614 124 661 124.9 679.2L125.1 680.8C163.8 675.2 221.9 596.5 296.5 450.4L302.4 438.9H332.3L320 462.5C308.325 484.426 296.358 506.195 284.1 527.8C346.4 501.7 413.3 485 477.1 473.1C447.519 452.703 421.702 427.326 400.8 398.1V398.2V398.3Z" fill="#F91D0A"/>
</g>
<defs>
<clipPath id="clip0">
<rect width="594" height="580" fill="white" transform="translate(104 111)"/>
</clipPath>
</defs>
</svg>
